<svg width="95" height="54" viewBox="0 0 95 54" fill="none" xmlns="http://www.w3.org/2000/svg">
<g clip-path="url(#clip0_152_45)">
<path d="M3.27402 22.6373C1.09639 20.4799 0.00756836 17.6934 0.00756836 14.2778C0.00756836 10.8623 1.1092 8.0707 3.31245 5.90308C5.51827 3.74569 8.32998 2.66699 11.7476 2.66699C14.4684 2.66699 16.7971 3.351 18.734 4.71901C20.6163 6.02064 21.9532 7.96676 22.4904 10.1872L17.6983 11.4748C17.3496 10.2441 16.5981 9.165 15.5636 8.40919C14.448 7.62812 13.1103 7.22512 11.7476 7.2596C9.74929 7.2596 8.15641 7.90528 6.94398 9.20815C5.73155 10.511 5.11092 12.2047 5.11092 14.2874C5.11092 16.3701 5.72771 18.0619 6.94398 19.3667C8.16025 20.6715 9.78387 21.3133 11.7822 21.3133C13.254 21.3133 14.5157 20.9237 15.5674 20.1446C16.6028 19.3896 17.3545 18.3102 17.7021 17.079L22.4942 18.3685C21.9534 20.5909 20.6045 22.534 18.709 23.8213C16.7549 25.1989 14.4107 25.8887 11.6611 25.8887C8.24736 25.8785 5.45166 24.7947 3.27402 22.6373Z" fill="#8BF497"/>
<path d="M27.1327 23.3117C25.3457 21.6027 24.46 19.3418 24.46 16.51C24.46 13.6782 25.3611 11.4307 27.15 9.70827C28.9388 7.98581 31.2158 7.14661 33.9999 7.14661C36.7841 7.14661 39.0476 7.99922 40.8364 9.70827C42.6253 11.4173 43.513 13.6935 43.513 16.51C43.513 19.3265 42.6118 21.6027 40.823 23.3117C39.0341 25.0208 36.7361 25.8734 33.9711 25.8734C31.2061 25.8734 28.9216 25.0189 27.1327 23.3117ZM37.2894 20.0297C38.1157 19.1464 38.523 17.9623 38.523 16.51C38.523 15.0577 38.1157 13.887 37.2894 13.0038C36.4632 12.1205 35.368 11.6626 33.9999 11.6626C32.603 11.6626 31.5021 12.1128 30.6797 13.0038C29.8573 13.8947 29.448 15.0558 29.448 16.51C29.448 17.9642 29.8535 19.1464 30.6797 20.0297C31.5059 20.9129 32.6011 21.3708 33.9999 21.3708C35.368 21.3632 36.4632 20.9148 37.2894 20.0297Z" fill="#8BF497"/>
<path d="M52.9454 7.64092V25.3791H48.0323V11.8503H45.2827V7.63517L52.9454 7.64092ZM48.1534 5.06393C47.8554 4.80155 47.62 4.47622 47.4641 4.11163C47.3082 3.74703 47.2358 3.35236 47.2522 2.95635C47.235 2.55291 47.3069 2.15064 47.4626 1.77788C47.6183 1.40513 47.8541 1.07096 48.1534 0.798953C48.7394 0.27589 49.5195 0.0057373 50.4975 0.0057373C51.4755 0.0057373 52.2268 0.27589 52.8032 0.798953C53.3797 1.32202 53.6737 2.05775 53.6737 2.95635C53.6737 3.85494 53.3893 4.5447 52.8032 5.06393C52.2172 5.58316 51.4582 5.85714 50.4975 5.85714C49.5368 5.85714 48.7394 5.58699 48.1534 5.06393Z" fill="#8BF497"/>
<path d="M72.8535 9.16794C73.9506 10.5321 74.5059 12.404 74.5059 14.7875V25.3791H69.5928V15.2512C69.5928 12.7949 68.4508 11.5661 66.1668 11.5648C64.9813 11.5648 64.0187 11.9097 63.3135 12.5841C62.9553 12.9214 62.6735 13.3311 62.4869 13.7858C62.3003 14.2404 62.2133 14.7296 62.2317 15.2205V25.3752H57.3032V7.6409H61.2249L62.1107 9.94008C63.4557 8.06625 65.356 7.13892 67.8654 7.13892C70.0763 7.14403 71.739 7.82037 72.8535 9.16794Z" fill="#8BF497"/>
<path d="M17.3083 37.8349C18.8455 39.5567 19.614 41.8239 19.614 44.6366C19.614 47.4492 18.8455 49.7114 17.3083 51.423C15.7712 53.1474 13.8363 54 11.5075 54C8.93851 54 6.99977 53.0707 5.69319 51.2276L4.80741 53.5057H0.885742V28.9639H5.81424V37.8195C7.10545 36.1258 8.99808 35.2713 11.5075 35.2713C13.8363 35.2713 15.775 36.1258 17.3083 37.8349ZM13.4462 48.1256C14.2282 47.2136 14.6183 46.0448 14.6183 44.6366C14.6183 43.2283 14.234 42.0596 13.4654 41.1303C12.6969 40.2011 11.6477 39.7508 10.3392 39.7508C8.99423 39.7508 7.89132 40.1704 7.07279 41.0096C6.25425 41.8488 5.81424 43.0636 5.81424 44.6385C5.81424 47.8957 7.31681 49.5223 10.3066 49.5223C11.617 49.5204 12.6642 49.0548 13.4462 48.1256Z" fill="white"/>
<path d="M24.6695 51.4383C22.8851 49.7293 21.9929 47.4627 21.9929 44.6385C21.9929 41.8144 22.8896 39.5471 24.6829 37.8368C26.4763 36.1277 28.7602 35.2732 31.5348 35.2732C34.2978 35.2732 36.5824 36.1277 38.3694 37.8368C40.1563 39.5458 41.044 41.822 41.044 44.6385C41.044 47.455 40.1429 49.7312 38.354 51.4402C36.5651 53.1493 34.2671 54.0019 31.5021 54.0019C28.7372 54.0019 26.4584 53.1455 24.6695 51.4383ZM34.8262 48.1562C35.6525 47.273 36.0579 46.0889 36.0579 44.6366C36.0579 43.1843 35.6525 42.0136 34.8262 41.1303C34 40.2471 32.9048 39.7892 31.5367 39.7892C30.1379 39.7892 29.0389 40.2375 28.2146 41.1303C27.3903 42.0232 26.9887 43.1824 26.9887 44.6385C26.9887 46.0947 27.3941 47.2749 28.2203 48.1582C29.0465 49.0414 30.1418 49.4994 31.5425 49.4994C32.9029 49.4898 34 49.0453 34.8262 48.1562Z" fill="white"/>
<path d="M56.2965 35.4667L55.8315 40.0057C55.1177 39.8358 54.3864 39.7503 53.6526 39.7509C53.0787 39.7341 52.5074 39.833 51.9729 40.0417C51.4383 40.2505 50.9515 40.5647 50.5417 40.9656C49.7155 41.7741 49.3101 42.9275 49.3101 44.4258V53.5057H44.3816V35.7656H48.3033L49.2198 38.1932C50.4072 36.2465 52.2096 35.2713 54.6594 35.2713C55.2111 35.2692 55.7609 35.3349 56.2965 35.4667Z" fill="white"/>
<path d="M56.9419 48.6813L61.465 47.7673C61.9011 49.371 63.298 50.1642 65.6921 50.1642C68.0209 50.1642 69.193 49.5894 69.193 48.4399C69.193 47.8842 68.9086 47.4646 68.3514 47.1504C67.7002 46.8092 66.9837 46.61 66.2494 46.566C65.3345 46.4769 64.4259 46.3323 63.5286 46.133C62.6004 45.9489 61.6866 45.6985 60.7944 45.3839C59.9318 45.0882 59.1897 44.5197 58.6808 43.7649C58.1255 42.9717 57.8392 41.983 57.8392 40.7683C57.8392 39.1953 58.5463 37.8771 59.9432 36.829C61.3401 35.781 63.2481 35.2694 65.6537 35.2694C67.8307 35.2694 69.5888 35.7197 70.9569 36.6106C72.3106 37.508 73.2721 38.8845 73.6469 40.4617L69.1238 41.4657C69.0438 41.1111 68.8937 40.7759 68.6822 40.4798C68.4707 40.1837 68.2021 39.9327 67.8922 39.7413C67.2158 39.3083 66.3743 39.0975 65.3674 39.0975C63.4594 39.0975 62.5122 39.6072 62.5122 40.6418C62.5122 41.2549 62.8964 41.6899 63.6996 41.983C64.6308 42.2927 65.5936 42.4983 66.5702 42.5961C67.6987 42.7291 68.8174 42.9345 69.9193 43.2111C71.0169 43.4835 72.0099 44.0719 72.7746 44.903C73.5701 45.7575 73.962 46.8956 73.962 48.3192C73.962 50.0569 73.2261 51.4365 71.737 52.4538C70.2479 53.4712 68.1919 53.9981 65.5634 53.9981C60.7431 53.9994 57.8693 52.2271 56.9419 48.6813Z" fill="white"/>
<path d="M95.0076 35.7656V53.5056H91.0936L90.2367 51.3023C88.9455 53.102 86.9926 54.0012 84.3782 54C82.1243 54 80.2163 53.1301 78.6523 51.4076C77.0882 49.6852 76.2947 47.4071 76.2947 44.6059C76.2947 41.8047 77.0902 39.5726 78.6677 37.8482C79.395 37.0202 80.2949 36.3606 81.3045 35.9155C82.3141 35.4703 83.409 35.2505 84.5127 35.2712C87.1412 35.2712 89.0646 36.1258 90.2982 37.8195L91.0936 35.7656H95.0076ZM88.859 48.1869C89.6698 47.3017 90.0753 46.1042 90.0753 44.6059C90.0753 43.1076 89.6698 41.8948 88.859 41.0403C88.0481 40.1857 86.9664 39.7508 85.6579 39.7508C84.3494 39.7508 83.2849 40.1857 82.4875 41.0556C81.6901 41.9254 81.2866 43.1229 81.2866 44.6059C81.2866 46.1195 81.692 47.317 82.4875 48.2022C83.283 49.0874 84.3359 49.5204 85.6579 49.5204C86.256 49.5393 86.8513 49.43 87.4035 49.2C87.9558 48.9699 88.4521 48.6245 88.859 48.1869Z" fill="white"/>
</g>
<defs>
<clipPath id="clip0_152_45">
<rect width="95" height="54" fill="white"/>
</clipPath>
</defs>
</svg>
